<?xml version="1.0" encoding="UTF-8" standalone="no"?>
<!-- Uploaded to: SVG Repo, www.svgrepo.com, Generator: SVG Repo Mixer Tools -->

<svg
   height="812.5"
   width="812.5"
   version="1.1"
   id="Capa_1"
   viewBox="0 0 32.5 32.5"
   xml:space="preserve"
   xmlns="http://www.w3.org/2000/svg"
   xmlns:svg="http://www.w3.org/2000/svg"><defs
   id="defs30" />
<g
   id="g25"
   transform="translate(0,0.5)">
	<g
   id="pin">
		<path
   id="path22"
   style="display:inline;fill:#030104"
   d="m 15.986016,7.9710156 c 0.0053,10e-4 0.01,0.00195 0.01398,0.00195 -0.004,0 -0.0087,-9.532e-4 -0.01398,-0.00195 z M 6.0042187,22.894609 0,32 9.2070312,25.991406 C 7.9727632,25.192816 6.8733499,24.15746 6.0042187,22.894609 Z" />
	<g
   id="path288"><path
     style="color:#000000;display:inline;fill:#800000;-inkscape-stroke:none"
     d="m 32,8 c 0,-4.416 -3.586,-8 -8,-8 -2.984,0 -5.562,1.658 -6.938,4.086 0,-0.002 0.004,-0.004 0.004,-0.006 -0.367,-0.035 -0.723,-0.111 -1.098,-0.111 -6.629,0 -12,5.371 -12,12 -0.013955,7.810509 6.183691,12.024304 12.001,12 6.629,0 12,-5.371 12,-12 0,-0.346 -0.07,-0.67 -0.102,-1.008 C 30.32,13.594 32,11.006 32,8 Z M 15.969,23.969 c -4.414,0 -8,-3.586 -8,-8 0,-4.412 3.586,-8 8,-8 0.012,0 0.023,0.004 0.031,0.004 0,-0.008 0.004,-0.014 0.004,-0.02 C 16.004,7.969 16,7.984 16,8 c 0,0.695 0.117,1.355 0.281,1.998 l -3.172,3.174 c -1.562,1.562 -1.562,4.094 0,5.656 1.562,1.562 4.094,1.562 5.656,0 l 3.141,-3.141 c 0.66,0.18 1.344,0.305 2.059,0.309 -0.016,4.402 -3.594,7.973 -7.996,7.973 z M 24,12 c -2.203,0 -4,-1.795 -4,-4 0,-2.205 1.797,-4 4,-4 2.203,0 4,1.795 4,4 0,2.205 -1.797,4 -4,4 z"
     id="path2424" /><path
     style="color:#000000;display:inline;fill:#000000;-inkscape-stroke:none"
     d="m 24,-0.5 c -3.041389,0 -5.661052,1.6468699 -7.160156,4.0546875 -0.26781,-0.036501 -0.534279,-0.085937 -0.871094,-0.085937 -6.899069,0 -12.5,5.600931 -12.5,12.5000005 -0.00721,4.03766 1.606297,7.197268 3.9804687,9.312499 2.3741718,2.115231 5.4913683,3.200159 8.5214843,3.1875 6.898158,-0.0011 12.498047,-5.601593 12.498047,-12.5 0,-0.305472 -0.0431,-0.540069 -0.07617,-0.779297 C 30.829117,13.698689 32.5,11.066259 32.5,8 32.5,3.3133223 28.684649,-0.5 24,-0.5 Z m 0,1 c 4.143342,0 7.5,3.3546865 7.5,7.5 0,2.819703 -1.573561,5.239811 -3.876953,6.523438 l -0.285156,0.160156 0.03125,0.324219 c 0.03562,0.376266 0.09961,0.682375 0.09961,0.960937 0,6.358918 -5.141082,11.5 -11.5,11.5 h -0.002 C 13.17961,27.480395 10.29072,26.471417 8.1152344,24.533203 5.9397492,22.594989 4.4620091,19.743544 4.46875,15.970703 v -0.002 c 0,-6.3589177 5.1410823,-11.5 11.5,-11.5 0.174064,0 0.393428,0.035986 0.59375,0.0625 V 5.9824219 L 17.496094,4.3320312 C 18.788152,2.0521502 21.201213,0.5 24,0.5 Z m 0,3 c -2.474597,0 -4.5,2.0233471 -4.5,4.5 0,2.476653 2.025403,4.5 4.5,4.5 2.474597,0 4.5,-2.023347 4.5,-4.5 0,-2.4766529 -2.025403,-4.5 -4.5,-4.5 z m 0,1 c 1.931399,0 3.5,1.5666573 3.5,3.5 0,1.9333427 -1.568601,3.5 -3.5,3.5 -1.931399,0 -3.5,-1.5666573 -3.5,-3.5 0,-1.9333427 1.568601,-3.5 3.5,-3.5 z m -8.03125,2.96875 c -4.684951,0 -8.5,3.817077 -8.5,8.5 0,4.6848 3.8152,8.5 8.5,8.5 4.672403,0 8.479113,-3.798759 8.496094,-8.470703 l 0.002,-0.5 -0.498047,-0.002 c -0.658511,-0.0037 -1.299553,-0.118628 -1.931641,-0.291016 l -0.279297,-0.07617 -3.345703,3.345703 c -1.370962,1.370962 -3.578256,1.370962 -4.949218,0 -1.370962,-1.370962 -1.370962,-3.578256 0,-4.949218 l 3.373046,-3.375 L 16.765625,9.875 C 16.607801,9.2562127 16.5,8.6388843 16.5,8 c 0,0.067333 0.0039,0.052458 0.0039,-0.046875 H 15.519531 L 16,7.4726562 c 0.158667,10e-8 0.09186,-0.00391 -0.03125,-0.00391 z m -0.392578,1.0800781 c 0.03582,0.4352135 0.08438,0.8638832 0.177734,1.2695313 l -2.998047,2.9999996 c -1.753034,1.753035 -1.753034,4.610247 0,6.363282 1.753035,1.753034 4.610247,1.753034 6.363282,0 l 2.964843,-2.964844 c 0.414542,0.101433 0.853089,0.150968 1.296875,0.191406 -0.239927,3.928006 -3.427335,7.060547 -7.412109,7.060547 -4.143191,0 -7.5,-3.356809 -7.5,-7.5 0,-4.001825 3.157587,-7.2044457 7.107422,-7.4199219 z"
     id="path2426" /></g></g>
</g>
</svg>
